<svg width="300" height="395" viewBox="0 0 300 395" fill="none" xmlns="http://www.w3.org/2000/svg">
<g clip-path="url(#clip0_12_54)">
<path d="M300 1.52588e-05H0V395H300V1.52588e-05Z" fill="#B9F5D8"/>
<path d="M-4.57764e-05 188.807C29.5989 188.935 38.9573 137.432 63.9529 118.546C89.1868 99.4798 130.83 110.197 145.278 79.0367C159.497 48.3725 133.104 12.5921 129.178 -22.1256C125.204 -57.2759 140.479 -98.133 122.094 -126.029C103.732 -153.889 67.9697 -150.136 39.1302 -158.755C11.5571 -166.997 -15.6127 -183.409 -43.2442 -175.447C-71.3716 -167.342 -92.749 -141.355 -111.692 -115.294C-130.631 -89.2399 -147.009 -59.9864 -151.868 -26.0117C-156.798 8.46054 -156.301 47.3718 -138.998 75.6199C-122.289 102.898 -87.0577 98.9391 -63.6561 117.996C-39.1935 137.916 -29.6314 188.679 -4.57764e-05 188.807Z" fill="#9BF1C7"/>
<path d="M300 512.029C321.965 515.817 345.444 527.925 365.158 515.782C385.059 503.523 395.6 475.821 400.888 449.886C405.703 426.268 392.604 403.366 393.029 379.066C393.575 347.768 417.138 314.854 403.716 287.94C390.812 262.065 357.957 266.565 333.399 259.493C310.106 252.786 287.274 242.664 263.672 247.613C238.443 252.903 211.913 263.793 196.527 288.191C181.39 312.193 186.167 345.187 183.325 375.016C180.578 403.844 167.294 435.557 180.135 460.211C193.062 485.029 222.887 485.256 245.934 495.219C263.805 502.944 281.185 508.784 300 512.029Z" fill="#D7F9E9"/>
</g>
<defs>
<clipPath id="clip0_12_54">
<rect width="300" height="395" rx="10" fill="white"/>
</clipPath>
</defs>
</svg>
