<svg width="300" height="395" viewBox="0 0 300 395" fill="none" xmlns="http://www.w3.org/2000/svg">
<g clip-path="url(#clip0_12_76)">
<path d="M300 0H0V395H300V0Z" fill="#F2F6D0"/>
<path d="M3.05176e-05 155.905C25.4591 150.799 46.4431 134.536 69.6997 121.831C96.5546 107.16 136.119 106.664 147.178 75.504C158.363 43.991 129.856 12.643 119.809 -19.35C111.946 -44.386 110.392 -72.332 94.5632 -92.045C78.8778 -111.579 55.695 -119.697 33.2386 -127.162C10.7404 -134.641 -11.9608 -137.337 -35.3483 -135.233C-63.7202 -132.68 -95.0884 -134.374 -116.773 -113.664C-139.226 -92.22 -150.072 -57.519 -151.349 -24.444C-152.572 7.24101 -134.128 33.981 -123.607 63.412C-112.48 94.541 -112.621 134.817 -87.7682 153.414C-62.9083 172.017 -29.4062 161.803 3.05176e-05 155.905Z" fill="#EAF0B2"/>
<path d="M300 550.183C327.123 552.274 353.164 543.6 378.193 531.677C407.393 517.767 443.804 507.941 456.848 475.465C469.894 442.986 449.341 406.762 442.324 372.013C435.921 340.311 437.962 303.615 417.501 280.627C397.28 257.909 364.337 262.893 336.953 253.628C309.323 244.28 284.595 223.748 255.804 225.917C223.541 228.348 187.686 237.683 167.85 266.368C148.118 294.902 157.139 335.536 155.068 371.592C153.173 404.585 141.945 439.847 156.222 468.759C170.324 497.319 202.452 505.425 228.414 520.127C251.631 533.276 274.06 548.183 300 550.183Z" fill="#FAFCEF"/>
</g>
<defs>
<clipPath id="clip0_12_76">
<rect width="300" height="395" rx="10" fill="white"/>
</clipPath>
</defs>
</svg>
