<svg xmlns="http://www.w3.org/2000/svg" version="1.1" xmlns:xlink="http://www.w3.org/1999/xlink" xmlns:svgjs="http://svgjs.com/svgjs" width="1192" height="200" preserveAspectRatio="none" viewBox="0 0 1192 200"><g mask="url(&quot;#SvgjsMask1065&quot;)" fill="none"><rect width="1192" height="200" x="0" y="0" fill="rgba(145, 166, 255, 1)"></rect><path d="M0,442.16C80.684,427.927,147.9,381.68,216.819,337.377C285.729,293.08,358.767,253.146,402.142,183.652C448.987,108.599,491.076,18.301,469.529,-67.508C448.255,-152.229,349.596,-187.345,292.403,-253.369C235.198,-319.405,216.685,-428.003,133.666,-455.225C50.734,-482.419,-31.534,-416.508,-113.474,-386.457C-189.618,-358.532,-280.316,-349.988,-329.377,-285.407C-377.878,-221.562,-368.544,-132.925,-366.971,-52.762C-365.606,16.824,-334.473,78.288,-320.903,146.551C-302.24,240.432,-342.665,358.802,-272.265,423.653C-203.978,486.558,-91.433,458.289,0,442.16" fill="#718cff"></path><path d="M1192 715.555C1287.199 707.819 1378.898 662.375 1444.592 593.0419999999999 1503.854 530.498 1502.941 436.473 1532.958 355.71000000000004 1560.299 282.148 1611.745 217.909 1613.183 139.44299999999998 1614.757 53.52000000000001 1586.719-29.72999999999999 1541.358-102.72000000000003 1490.46-184.62 1433.185-279.732 1339.221-301.388 1245.484-322.99199999999996 1160.008-248.267 1071.304-211.05399999999997 993.124-178.25599999999997 908.549-157.675 850.15-96.21499999999997 790.277-33.20400000000001 761.1510000000001 50.50200000000001 742.175 135.325 721.9490000000001 225.735 707.7719999999999 319.824 737.4449999999999 407.58799999999997 768.773 500.248 830.594 581.491 911.572 636.354 993.648 691.962 1093.186 723.584 1192 715.555" fill="#b1c0ff"></path></g><defs><mask id="SvgjsMask1065"><rect width="1192" height="200" fill="#ffffff"></rect></mask></defs></svg>