<svg width="300" height="395" viewBox="0 0 300 395" fill="none" xmlns="http://www.w3.org/2000/svg">
<g clip-path="url(#clip0_12_91)">
<path d="M300 -1.52588e-05H0V395H300V-1.52588e-05Z" fill="#F38D68"/>
<path d="M-3.05176e-05 142.232C28.836 137.619 61.193 149.212 85.307 132.74C109.305 116.347 111.15 82.653 124.789 56.989C139.538 29.236 168.257 7.16398 168.742 -24.261C169.244 -56.759 146.948 -84.423 127.374 -110.37C106.621 -137.88 86.104 -171.272 52.406 -178.478C18.928 -185.637 -12.861 -162.855 -43.113 -146.828C-68.344 -133.461 -86.626 -112.531 -107.94 -93.531C-132.877 -71.302 -169.667 -57.818 -178.96 -25.731C-188.384 6.80898 -167.984 39.528 -155.611 71.065C-142.545 104.37 -137.39 148.278 -104.855 163.158C-71.773 178.288 -35.921 147.978 -3.05176e-05 142.232Z" fill="#F17A4E"/>
<path d="M300 492.918C319.911 494.766 339.793 493.255 358.34 485.779C379.715 477.163 405.899 468.628 413.886 447.01C421.913 425.283 401.576 403.761 397.032 381.049C392.821 360.001 400.158 336.401 388.193 318.58C375.814 300.142 354.058 289.539 332.374 284.745C311.458 280.121 290.59 286.948 269.881 292.426C248.607 298.053 226.182 302.083 210.087 317.09C193.126 332.906 181.908 354.592 178.595 377.545C175.281 400.505 178.269 425.545 191.704 444.457C204.416 462.351 228.192 466.594 248.227 475.56C265.185 483.148 281.501 491.201 300 492.918Z" fill="#F5A082"/>
</g>
<defs>
<clipPath id="clip0_12_91">
<rect width="300" height="395" rx="10" fill="white"/>
</clipPath>
</defs>
</svg>
