<svg width="300" height="395" viewBox="0 0 300 395" fill="none" xmlns="http://www.w3.org/2000/svg">
<g clip-path="url(#clip0_12_98)">
<path d="M300 -1.52588e-05H0V395H300V-1.52588e-05Z" fill="#91A6FF"/>
<path d="M0 116.727C22.08 115.245 42.59 107.18 61.609 95.866C81.181 84.223 101.147 71.223 111.002 50.693C120.936 29.999 116.169 6.32699 115.605 -16.621C114.962 -42.787 123.355 -72.321 107.467 -93.121C91.527 -113.989 61.193 -115.342 35.625 -121.327C11.397 -126.998 -14.393 -136.74 -37.292 -127.004C-59.713 -117.472 -68.91 -91.647 -82.205 -71.231C-93.699 -53.581 -101.709 -35.254 -109.726 -15.776C-120.502 10.404 -146.785 36.032 -137.342 62.722C-128.073 88.919 -93.026 94.342 -67.165 104.511C-45.55 113.01 -23.174 118.283 0 116.727Z" fill="#718CFF"/>
<path d="M300 568.659C331.932 565.038 346.88 527.36 373.371 509.167C398.721 491.757 433.265 488.842 451.873 464.358C472.297 437.483 488.73 401.698 479.781 369.151C470.87 336.741 430.266 326.565 407.251 302.067C385.516 278.931 376.932 243.809 348.593 229.507C318.358 214.248 278.64 205.428 249.307 222.355C219.681 239.451 225.001 284.904 204.783 312.494C187.054 336.688 148.658 343.328 139.686 371.95C130.566 401.045 145.363 432.11 158.691 459.534C171.782 486.47 191.391 508.81 215.095 527.115C240.548 546.771 268.046 572.282 300 568.659Z" fill="#B1C0FF"/>
</g>
<defs>
<clipPath id="clip0_12_98">
<rect width="300" height="395" rx="10" fill="white"/>
</clipPath>
</defs>
</svg>
