<svg xmlns="http://www.w3.org/2000/svg" version="1.1" xmlns:xlink="http://www.w3.org/1999/xlink" xmlns:svgjs="http://svgjs.com/svgjs" width="1192" height="200" preserveAspectRatio="none" viewBox="0 0 1192 200"><g mask="url(&quot;#SvgjsMask1063&quot;)" fill="none"><rect width="1192" height="200" x="0" y="0" fill="rgba(242, 246, 208, 1)"></rect><path d="M0,340.702C61.817,329.114,99.445,269.688,146.496,227.953C185.96,192.948,225.189,160.271,253.555,115.795C285.682,65.422,327.565,13.219,321.344,-46.202C315.087,-105.968,263.966,-149.432,221.353,-191.803C181.389,-231.54,137.285,-267.518,83.118,-283.075C29.141,-298.578,-27.9,-294.347,-81.892,-278.899C-136.155,-263.374,-183.103,-232.79,-224.96,-194.929C-271.453,-152.874,-331.004,-110.843,-336.702,-48.41C-342.394,13.955,-278.672,58.424,-253.309,115.682C-227.541,173.854,-234.193,248.142,-186.626,290.396C-137.462,334.07,-64.635,352.818,0,340.702" fill="#eaf0b2"></path><path d="M1192 607.566C1267.706 616.385 1330.614 555.642 1399.221 522.442 1478.272 484.188 1577.659 471.655 1625.304 397.88300000000004 1674.1970000000001 322.178 1674.618 220.84199999999998 1649.996 134.15 1626.72 52.196 1564.3519999999999-13.272999999999996 1494.626-62.226999999999975 1434.342-104.553 1359.5140000000001-113.007 1286.311-121.19299999999998 1223.823-128.18 1164.524-113.78199999999998 1102.116-106.118 1025.868-96.755 936.514-122.15499999999997 879.0409999999999-71.18099999999998 821.5509999999999-20.193000000000012 815.9490000000001 69.35300000000001 817.652 146.177 819.198 215.935 852.606 278.717 888.129 338.773 920.537 393.562 965.966 435.35 1013.645 477.525 1069.894 527.281 1117.407 598.876 1192 607.566" fill="#fafcef"></path></g><defs><mask id="SvgjsMask1063"><rect width="1192" height="200" fill="#ffffff"></rect></mask></defs></svg>