<svg xmlns="http://www.w3.org/2000/svg" version="1.1" xmlns:xlink="http://www.w3.org/1999/xlink" xmlns:svgjs="http://svgjs.com/svgjs" width="1192" height="200" preserveAspectRatio="none" viewBox="0 0 1192 200"><g mask="url(&quot;#SvgjsMask1068&quot;)" fill="none"><rect width="1192" height="200" x="0" y="0" fill="rgba(243, 141, 104, 1)"></rect><path d="M0,277.113C49.849,266.284,86.306,228.649,129.243,201.106C172.224,173.535,223.017,157.045,252.344,115.242C284.715,69.1,312.521,11.874,300.656,-43.228C288.895,-97.85,231.383,-126.768,191.753,-166.155C155.377,-202.308,123.662,-241.93,77.744,-264.772C25.126,-290.947,-35.092,-327.408,-89.932,-306.28C-145.1,-285.025,-146.904,-205.442,-187.588,-162.546C-231.234,-116.527,-325.631,-110.896,-334.769,-48.133C-343.901,14.594,-255.55,47.112,-226.299,103.347C-199.282,155.288,-217.619,230.709,-171.183,266.366C-124.899,301.906,-57.025,289.5,0,277.113" fill="#f17a4e"></path><path d="M1192 601.937C1267.356 600.633 1332.869 558.453 1398.068 520.648 1466.225 481.127 1532.406 440.047 1579.772 377.089 1635.806 302.609 1716.716 218.168 1693.556 127.887 1669.922 35.75999999999999 1537.8319999999999 26.031000000000006 1472.083-42.69300000000001 1411.214-106.31599999999997 1409.483-228.365 1325.9859999999999-256.315 1242.954-284.11 1167.061-195.627 1082.441-173.125 994.687-149.79000000000002 884.646-186.17700000000002 820.508-121.899 756.576-57.827999999999975 760.3140000000001 49.483000000000004 770.585 139.41 779.4780000000001 217.268 836.504 276.404 873.869 345.286 908.2339999999999 408.637 925.206 482.604 981.299 527.857 1040.44 575.569 1116.024 603.251 1192 601.937" fill="#f5a082"></path></g><defs><mask id="SvgjsMask1068"><rect width="1192" height="200" fill="#ffffff"></rect></mask></defs></svg>