<svg width="1192" height="200" viewBox="0 0 1192 200" fill="none" xmlns="http://www.w3.org/2000/svg">
<g clip-path="url(#clip0_12_179)">
<path d="M1192 0H0V200H1192V0Z" fill="#B9F5D8"/>
<path d="M0 391.807C84.5057 377.944 130.008 303.314 203.074 265.092C277.588 226.113 393.769 231.822 432.344 165.642C470.786 99.691 409.289 24.046 384.632 -46.394C363.466 -106.865 341.036 -165.031 298.429 -216.938C251.516 -274.091 199.877 -329.224 126.364 -361.036C43.2613 -396.997 -56.4209 -437.991 -142.75 -407.853C-229.559 -377.547 -236.184 -275.959 -294.525 -214.1C-349.194 -156.136 -448.598 -128.008 -473.541 -57.118C-499.287 16.057 -464.567 94.114 -427.482 163.779C-390.168 233.875 -338.672 300.106 -261.452 341.297C-184.425 382.385 -89.5836 406.503 0 391.807Z" fill="#9BF1C7"/>
<path d="M1192 470.765C1254.66 472.027 1322.27 466.654 1370.72 433.302C1417.73 400.944 1418.35 342.788 1444.7 296.815C1471.75 249.619 1529.86 211.851 1527.64 159.516C1525.37 106.343 1482.27 58.346 1433.12 24.718C1387.64 -6.40101 1326.21 -10.036 1268.28 -17.935C1216.97 -24.931 1165.14 -31.516 1115.49 -18.591C1066.29 -5.78201 1027.1 23.021 991.37 54.155C953.977 86.74 919.839 121.967 904.448 165.316C887.469 213.139 879.335 265.093 899.848 311.931C921.061 360.366 967.093 398.148 1018.71 426.211C1070.46 454.344 1130.35 469.523 1192 470.765Z" fill="#D7F9E9"/>
</g>
<defs>
<clipPath id="clip0_12_179">
<rect width="1192" height="200" rx="10" fill="white"/>
</clipPath>
</defs>
</svg>
