<svg width="1192" height="200" viewBox="0 0 1192 200" fill="none" xmlns="http://www.w3.org/2000/svg">
<g clip-path="url(#clip0_75_2)">
<path d="M1192 0H0V200H1192V0Z" fill="#B9F5D8"/>
<path d="M1.34696e-05 391.807C84.5057 377.944 130.008 303.314 203.074 265.092C277.588 226.113 393.769 231.822 432.344 165.642C470.786 99.691 409.289 24.046 384.632 -46.394C363.466 -106.865 341.036 -165.031 298.429 -216.938C251.516 -274.091 199.877 -329.224 126.364 -361.036C43.2613 -396.997 -56.4209 -437.991 -142.75 -407.853C-229.559 -377.547 -236.184 -275.959 -294.525 -214.1C-349.194 -156.136 -448.598 -128.008 -473.541 -57.118C-499.287 16.057 -464.567 94.114 -427.482 163.779C-390.168 233.875 -338.672 300.106 -261.452 341.297C-184.425 382.385 -89.5836 406.503 1.34696e-05 391.807Z" fill="#9BF1C7"/>
<path d="M1192 470.765C1254.66 472.027 1322.27 466.654 1370.72 433.302C1417.73 400.944 1418.35 342.788 1444.7 296.815C1471.75 249.619 1529.86 211.851 1527.64 159.516C1525.37 106.343 1482.27 58.346 1433.12 24.718C1387.64 -6.40101 1326.21 -10.036 1268.28 -17.935C1216.97 -24.931 1165.14 -31.516 1115.49 -18.591C1066.29 -5.78201 1027.1 23.021 991.37 54.155C953.977 86.74 919.839 121.967 904.448 165.316C887.469 213.139 879.335 265.093 899.848 311.931C921.061 360.366 967.093 398.148 1018.71 426.211C1070.46 454.344 1130.35 469.523 1192 470.765Z" fill="#D7F9E9"/>
<path d="M53.65 81.75V88.85H65.1V95.45H53.65V103.15H66.6V110H45.1V74.9H66.6V81.75H53.65ZM89.1508 81.8C92.4174 81.8 95.0174 82.8667 96.9508 85C98.9174 87.1 99.9008 90 99.9008 93.7V110H91.4008V94.85C91.4008 92.9833 90.9174 91.5333 89.9508 90.5C88.9841 89.4667 87.6841 88.95 86.0508 88.95C84.4174 88.95 83.1174 89.4667 82.1508 90.5C81.1841 91.5333 80.7008 92.9833 80.7008 94.85V110H72.1508V82.1H80.7008V85.8C81.5674 84.5667 82.7341 83.6 84.2008 82.9C85.6674 82.1667 87.3174 81.8 89.1508 81.8ZM116.442 81.7C118.409 81.7 120.126 82.1 121.592 82.9C123.092 83.7 124.242 84.75 125.042 86.05V82.1H133.592V109.95C133.592 112.517 133.076 114.833 132.042 116.9C131.042 119 129.492 120.667 127.392 121.9C125.326 123.133 122.742 123.75 119.642 123.75C115.509 123.75 112.159 122.767 109.592 120.8C107.026 118.867 105.559 116.233 105.192 112.9H113.642C113.909 113.967 114.542 114.8 115.542 115.4C116.542 116.033 117.776 116.35 119.242 116.35C121.009 116.35 122.409 115.833 123.442 114.8C124.509 113.8 125.042 112.183 125.042 109.95V106C124.209 107.3 123.059 108.367 121.592 109.2C120.126 110 118.409 110.4 116.442 110.4C114.142 110.4 112.059 109.817 110.192 108.65C108.326 107.45 106.842 105.767 105.742 103.6C104.676 101.4 104.142 98.8667 104.142 96C104.142 93.1333 104.676 90.6167 105.742 88.45C106.842 86.2833 108.326 84.6167 110.192 83.45C112.059 82.2833 114.142 81.7 116.442 81.7ZM125.042 96.05C125.042 93.9167 124.442 92.2333 123.242 91C122.076 89.7667 120.642 89.15 118.942 89.15C117.242 89.15 115.792 89.7667 114.592 91C113.426 92.2 112.842 93.8667 112.842 96C112.842 98.1333 113.426 99.8333 114.592 101.1C115.792 102.333 117.242 102.95 118.942 102.95C120.642 102.95 122.076 102.333 123.242 101.1C124.442 99.8667 125.042 98.1833 125.042 96.05ZM148.328 73V110H139.778V73H148.328ZM158.824 79.2C157.324 79.2 156.09 78.7667 155.124 77.9C154.19 77 153.724 75.9 153.724 74.6C153.724 73.2667 154.19 72.1667 155.124 71.3C156.09 70.4 157.324 69.95 158.824 69.95C160.29 69.95 161.49 70.4 162.424 71.3C163.39 72.1667 163.874 73.2667 163.874 74.6C163.874 75.9 163.39 77 162.424 77.9C161.49 78.7667 160.29 79.2 158.824 79.2ZM163.074 82.1V110H154.524V82.1H163.074ZM180.62 110.4C178.187 110.4 176.02 109.983 174.12 109.15C172.22 108.317 170.72 107.183 169.62 105.75C168.52 104.283 167.903 102.65 167.77 100.85H176.22C176.32 101.817 176.77 102.6 177.57 103.2C178.37 103.8 179.353 104.1 180.52 104.1C181.587 104.1 182.403 103.9 182.97 103.5C183.57 103.067 183.87 102.517 183.87 101.85C183.87 101.05 183.453 100.467 182.62 100.1C181.787 99.7 180.437 99.2667 178.57 98.8C176.57 98.3333 174.903 97.85 173.57 97.35C172.237 96.8167 171.087 96 170.12 94.9C169.153 93.7667 168.67 92.25 168.67 90.35C168.67 88.75 169.103 87.3 169.97 86C170.87 84.6667 172.17 83.6167 173.87 82.85C175.603 82.0833 177.653 81.7 180.02 81.7C183.52 81.7 186.27 82.5667 188.27 84.3C190.303 86.0333 191.47 88.3333 191.77 91.2H183.87C183.737 90.2333 183.303 89.4667 182.57 88.9C181.87 88.3333 180.937 88.05 179.77 88.05C178.77 88.05 178.003 88.25 177.47 88.65C176.937 89.0167 176.67 89.5333 176.67 90.2C176.67 91 177.087 91.6 177.92 92C178.787 92.4 180.12 92.8 181.92 93.2C183.987 93.7333 185.67 94.2667 186.97 94.8C188.27 95.3 189.403 96.1333 190.37 97.3C191.37 98.4333 191.887 99.9667 191.92 101.9C191.92 103.533 191.453 105 190.52 106.3C189.62 107.567 188.303 108.567 186.57 109.3C184.87 110.033 182.887 110.4 180.62 110.4ZM214.301 81.8C217.501 81.8 220.067 82.8667 222.001 85C223.934 87.1 224.901 90 224.901 93.7V110H216.401V94.85C216.401 92.9833 215.917 91.5333 214.951 90.5C213.984 89.4667 212.684 88.95 211.051 88.95C209.417 88.95 208.117 89.4667 207.151 90.5C206.184 91.5333 205.701 92.9833 205.701 94.85V110H197.151V73H205.701V85.85C206.567 84.6167 207.751 83.6333 209.251 82.9C210.751 82.1667 212.434 81.8 214.301 81.8ZM274.388 74.9L261.938 110H251.238L238.788 74.9H247.888L256.588 101.4L265.338 74.9H274.388ZM304.261 95.6C304.261 96.4 304.211 97.2333 304.111 98.1H284.761C284.895 99.8333 285.445 101.167 286.411 102.1C287.411 103 288.628 103.45 290.061 103.45C292.195 103.45 293.678 102.55 294.511 100.75H303.611C303.145 102.583 302.295 104.233 301.061 105.7C299.861 107.167 298.345 108.317 296.511 109.15C294.678 109.983 292.628 110.4 290.361 110.4C287.628 110.4 285.195 109.817 283.061 108.65C280.928 107.483 279.261 105.817 278.061 103.65C276.861 101.483 276.261 98.95 276.261 96.05C276.261 93.15 276.845 90.6167 278.011 88.45C279.211 86.2833 280.878 84.6167 283.011 83.45C285.145 82.2833 287.595 81.7 290.361 81.7C293.061 81.7 295.461 82.2667 297.561 83.4C299.661 84.5333 301.295 86.15 302.461 88.25C303.661 90.35 304.261 92.8 304.261 95.6ZM295.511 93.35C295.511 91.8833 295.011 90.7167 294.011 89.85C293.011 88.9833 291.761 88.55 290.261 88.55C288.828 88.55 287.611 88.9667 286.611 89.8C285.645 90.6333 285.045 91.8167 284.811 93.35H295.511ZM317.322 86.75C318.322 85.2167 319.572 84.0167 321.072 83.15C322.572 82.25 324.239 81.8 326.072 81.8V90.85H323.722C321.589 90.85 319.989 91.3167 318.922 92.25C317.855 93.15 317.322 94.75 317.322 97.05V110H308.772V82.1H317.322V86.75ZM338.709 86.05C339.509 84.75 340.659 83.7 342.159 82.9C343.659 82.1 345.375 81.7 347.309 81.7C349.609 81.7 351.692 82.2833 353.559 83.45C355.425 84.6167 356.892 86.2833 357.959 88.45C359.059 90.6167 359.609 93.1333 359.609 96C359.609 98.8667 359.059 101.4 357.959 103.6C356.892 105.767 355.425 107.45 353.559 108.65C351.692 109.817 349.609 110.4 347.309 110.4C345.342 110.4 343.625 110.017 342.159 109.25C340.692 108.45 339.542 107.4 338.709 106.1V110H330.159V73H338.709V86.05ZM350.909 96C350.909 93.8667 350.309 92.2 349.109 91C347.942 89.7667 346.492 89.15 344.759 89.15C343.059 89.15 341.609 89.7667 340.409 91C339.242 92.2333 338.659 93.9167 338.659 96.05C338.659 98.1833 339.242 99.8667 340.409 101.1C341.609 102.333 343.059 102.95 344.759 102.95C346.459 102.95 347.909 102.333 349.109 101.1C350.309 99.8333 350.909 98.1333 350.909 96ZM399.94 74.9V81.75H390.64V110H382.09V81.75H372.79V74.9H399.94ZM430.531 95.6C430.531 96.4 430.481 97.2333 430.381 98.1H411.031C411.164 99.8333 411.714 101.167 412.681 102.1C413.681 103 414.898 103.45 416.331 103.45C418.464 103.45 419.948 102.55 420.781 100.75H429.881C429.414 102.583 428.564 104.233 427.331 105.7C426.131 107.167 424.614 108.317 422.781 109.15C420.948 109.983 418.898 110.4 416.631 110.4C413.898 110.4 411.464 109.817 409.331 108.65C407.198 107.483 405.531 105.817 404.331 103.65C403.131 101.483 402.531 98.95 402.531 96.05C402.531 93.15 403.114 90.6167 404.281 88.45C405.481 86.2833 407.148 84.6167 409.281 83.45C411.414 82.2833 413.864 81.7 416.631 81.7C419.331 81.7 421.731 82.2667 423.831 83.4C425.931 84.5333 427.564 86.15 428.731 88.25C429.931 90.35 430.531 92.8 430.531 95.6ZM421.781 93.35C421.781 91.8833 421.281 90.7167 420.281 89.85C419.281 88.9833 418.031 88.55 416.531 88.55C415.098 88.55 413.881 88.9667 412.881 89.8C411.914 90.6333 411.314 91.8167 411.081 93.35H421.781ZM452.041 81.8C455.308 81.8 457.908 82.8667 459.841 85C461.808 87.1 462.791 90 462.791 93.7V110H454.291V94.85C454.291 92.9833 453.808 91.5333 452.841 90.5C451.875 89.4667 450.575 88.95 448.941 88.95C447.308 88.95 446.008 89.4667 445.041 90.5C444.075 91.5333 443.591 92.9833 443.591 94.85V110H435.041V82.1H443.591V85.8C444.458 84.5667 445.625 83.6 447.091 82.9C448.558 82.1667 450.208 81.8 452.041 81.8ZM480.083 110.4C477.649 110.4 475.483 109.983 473.583 109.15C471.683 108.317 470.183 107.183 469.083 105.75C467.983 104.283 467.366 102.65 467.233 100.85H475.683C475.783 101.817 476.233 102.6 477.033 103.2C477.833 103.8 478.816 104.1 479.983 104.1C481.049 104.1 481.866 103.9 482.433 103.5C483.033 103.067 483.333 102.517 483.333 101.85C483.333 101.05 482.916 100.467 482.083 100.1C481.249 99.7 479.899 99.2667 478.033 98.8C476.033 98.3333 474.366 97.85 473.033 97.35C471.699 96.8167 470.549 96 469.583 94.9C468.616 93.7667 468.133 92.25 468.133 90.35C468.133 88.75 468.566 87.3 469.433 86C470.333 84.6667 471.633 83.6167 473.333 82.85C475.066 82.0833 477.116 81.7 479.483 81.7C482.983 81.7 485.733 82.5667 487.733 84.3C489.766 86.0333 490.933 88.3333 491.233 91.2H483.333C483.199 90.2333 482.766 89.4667 482.033 88.9C481.333 88.3333 480.399 88.05 479.233 88.05C478.233 88.05 477.466 88.25 476.933 88.65C476.399 89.0167 476.133 89.5333 476.133 90.2C476.133 91 476.549 91.6 477.383 92C478.249 92.4 479.583 92.8 481.383 93.2C483.449 93.7333 485.133 94.2667 486.433 94.8C487.733 95.3 488.866 96.1333 489.833 97.3C490.833 98.4333 491.349 99.9667 491.383 101.9C491.383 103.533 490.916 105 489.983 106.3C489.083 107.567 487.766 108.567 486.033 109.3C484.333 110.033 482.349 110.4 480.083 110.4ZM522.914 95.6C522.914 96.4 522.864 97.2333 522.764 98.1H503.414C503.547 99.8333 504.097 101.167 505.064 102.1C506.064 103 507.28 103.45 508.714 103.45C510.847 103.45 512.33 102.55 513.164 100.75H522.264C521.797 102.583 520.947 104.233 519.714 105.7C518.514 107.167 516.997 108.317 515.164 109.15C513.33 109.983 511.28 110.4 509.014 110.4C506.28 110.4 503.847 109.817 501.714 108.65C499.58 107.483 497.914 105.817 496.714 103.65C495.514 101.483 494.914 98.95 494.914 96.05C494.914 93.15 495.497 90.6167 496.664 88.45C497.864 86.2833 499.53 84.6167 501.664 83.45C503.797 82.2833 506.247 81.7 509.014 81.7C511.714 81.7 514.114 82.2667 516.214 83.4C518.314 84.5333 519.947 86.15 521.114 88.25C522.314 90.35 522.914 92.8 522.914 95.6ZM514.164 93.35C514.164 91.8833 513.664 90.7167 512.664 89.85C511.664 88.9833 510.414 88.55 508.914 88.55C507.48 88.55 506.264 88.9667 505.264 89.8C504.297 90.6333 503.697 91.8167 503.464 93.35H514.164ZM538.774 110.4C536.341 110.4 534.174 109.983 532.274 109.15C530.374 108.317 528.874 107.183 527.774 105.75C526.674 104.283 526.058 102.65 525.924 100.85H534.374C534.474 101.817 534.924 102.6 535.724 103.2C536.524 103.8 537.508 104.1 538.674 104.1C539.741 104.1 540.558 103.9 541.124 103.5C541.724 103.067 542.024 102.517 542.024 101.85C542.024 101.05 541.608 100.467 540.774 100.1C539.941 99.7 538.591 99.2667 536.724 98.8C534.724 98.3333 533.058 97.85 531.724 97.35C530.391 96.8167 529.241 96 528.274 94.9C527.308 93.7667 526.824 92.25 526.824 90.35C526.824 88.75 527.258 87.3 528.124 86C529.024 84.6667 530.324 83.6167 532.024 82.85C533.758 82.0833 535.808 81.7 538.174 81.7C541.674 81.7 544.424 82.5667 546.424 84.3C548.458 86.0333 549.624 88.3333 549.924 91.2H542.024C541.891 90.2333 541.458 89.4667 540.724 88.9C540.024 88.3333 539.091 88.05 537.924 88.05C536.924 88.05 536.158 88.25 535.624 88.65C535.091 89.0167 534.824 89.5333 534.824 90.2C534.824 91 535.241 91.6 536.074 92C536.941 92.4 538.274 92.8 540.074 93.2C542.141 93.7333 543.824 94.2667 545.124 94.8C546.424 95.3 547.558 96.1333 548.524 97.3C549.524 98.4333 550.041 99.9667 550.074 101.9C550.074 103.533 549.608 105 548.674 106.3C547.774 107.567 546.458 108.567 544.724 109.3C543.024 110.033 541.041 110.4 538.774 110.4Z" fill="#12130F"/>
<path d="M49.242 134.897C49.6727 134.965 50.0637 135.141 50.415 135.424C50.7777 135.707 51.061 136.059 51.265 136.478C51.4803 136.897 51.588 137.345 51.588 137.821C51.588 138.422 51.435 138.966 51.129 139.453C50.823 139.929 50.3753 140.309 49.786 140.592C49.208 140.864 48.5223 141 47.729 141H43.309V129.151H47.559C48.3637 129.151 49.0493 129.287 49.616 129.559C50.1827 129.82 50.6077 130.177 50.891 130.63C51.1743 131.083 51.316 131.593 51.316 132.16C51.316 132.863 51.1233 133.446 50.738 133.911C50.364 134.364 49.8653 134.693 49.242 134.897ZM44.856 134.268H47.457C48.1823 134.268 48.7433 134.098 49.14 133.758C49.5367 133.418 49.735 132.948 49.735 132.347C49.735 131.746 49.5367 131.276 49.14 130.936C48.7433 130.596 48.171 130.426 47.423 130.426H44.856V134.268ZM47.593 139.725C48.3637 139.725 48.9643 139.544 49.395 139.181C49.8257 138.818 50.041 138.314 50.041 137.668C50.041 137.011 49.8143 136.495 49.361 136.121C48.9077 135.736 48.3013 135.543 47.542 135.543H44.856V139.725H47.593ZM61.7588 131.684L56.1488 145.386H54.5508L56.3868 140.898L52.6298 131.684H54.3468L57.2708 139.232L60.1608 131.684H61.7588ZM63.8069 141.102C63.5122 141.102 63.2629 141 63.0589 140.796C62.8549 140.592 62.7529 140.343 62.7529 140.048C62.7529 139.753 62.8549 139.504 63.0589 139.3C63.2629 139.096 63.5122 138.994 63.8069 138.994C64.0902 138.994 64.3282 139.096 64.5209 139.3C64.7249 139.504 64.8269 139.753 64.8269 140.048C64.8269 140.343 64.7249 140.592 64.5209 140.796C64.3282 141 64.0902 141.102 63.8069 141.102ZM63.8069 133.826C63.5122 133.826 63.2629 133.724 63.0589 133.52C62.8549 133.316 62.7529 133.067 62.7529 132.772C62.7529 132.477 62.8549 132.228 63.0589 132.024C63.2629 131.82 63.5122 131.718 63.8069 131.718C64.0902 131.718 64.3282 131.82 64.5209 132.024C64.7249 132.228 64.8269 132.477 64.8269 132.772C64.8269 133.067 64.7249 133.316 64.5209 133.52C64.3282 133.724 64.0902 133.826 63.8069 133.826ZM78.7583 129.151V130.409H75.5283V141H73.9813V130.409H70.7343V129.151H78.7583ZM84.7255 141.153C83.8528 141.153 83.0595 140.955 82.3455 140.558C81.6428 140.161 81.0875 139.6 80.6795 138.875C80.2828 138.138 80.0845 137.288 80.0845 136.325C80.0845 135.373 80.2885 134.534 80.6965 133.809C81.1158 133.072 81.6825 132.511 82.3965 132.126C83.1105 131.729 83.9095 131.531 84.7935 131.531C85.6775 131.531 86.4765 131.729 87.1905 132.126C87.9045 132.511 88.4655 133.067 88.8735 133.792C89.2928 134.517 89.5025 135.362 89.5025 136.325C89.5025 137.288 89.2872 138.138 88.8565 138.875C88.4372 139.6 87.8648 140.161 87.1395 140.558C86.4142 140.955 85.6095 141.153 84.7255 141.153ZM84.7255 139.793C85.2808 139.793 85.8022 139.663 86.2895 139.402C86.7768 139.141 87.1678 138.75 87.4625 138.229C87.7685 137.708 87.9215 137.073 87.9215 136.325C87.9215 135.577 87.7742 134.942 87.4795 134.421C87.1848 133.9 86.7995 133.514 86.3235 133.265C85.8475 133.004 85.3318 132.874 84.7765 132.874C84.2098 132.874 83.6885 133.004 83.2125 133.265C82.7478 133.514 82.3738 133.9 82.0905 134.421C81.8072 134.942 81.6655 135.577 81.6655 136.325C81.6655 137.084 81.8015 137.725 82.0735 138.246C82.3568 138.767 82.7308 139.158 83.1955 139.419C83.6602 139.668 84.1702 139.793 84.7255 139.793ZM102.74 131.514C103.465 131.514 104.111 131.667 104.678 131.973C105.244 132.268 105.692 132.715 106.021 133.316C106.349 133.917 106.514 134.648 106.514 135.509V141H104.984V135.73C104.984 134.801 104.751 134.092 104.287 133.605C103.833 133.106 103.216 132.857 102.434 132.857C101.629 132.857 100.989 133.118 100.513 133.639C100.037 134.149 99.7985 134.891 99.7985 135.866V141H98.2685V135.73C98.2685 134.801 98.0362 134.092 97.5715 133.605C97.1182 133.106 96.5005 132.857 95.7185 132.857C94.9139 132.857 94.2735 133.118 93.7975 133.639C93.3215 134.149 93.0835 134.891 93.0835 135.866V141H91.5365V131.684H93.0835V133.027C93.3895 132.54 93.7975 132.166 94.3075 131.905C94.8289 131.644 95.4012 131.514 96.0245 131.514C96.8065 131.514 97.4979 131.69 98.0985 132.041C98.6992 132.392 99.1469 132.908 99.4415 133.588C99.7022 132.931 100.133 132.421 100.734 132.058C101.334 131.695 102.003 131.514 102.74 131.514ZM108.473 136.308C108.473 135.356 108.666 134.523 109.051 133.809C109.437 133.084 109.964 132.523 110.632 132.126C111.312 131.729 112.066 131.531 112.893 131.531C113.709 131.531 114.418 131.707 115.018 132.058C115.619 132.409 116.067 132.851 116.361 133.384V131.684H117.925V141H116.361V139.266C116.055 139.81 115.596 140.263 114.984 140.626C114.384 140.977 113.681 141.153 112.876 141.153C112.049 141.153 111.301 140.949 110.632 140.541C109.964 140.133 109.437 139.561 109.051 138.824C108.666 138.087 108.473 137.249 108.473 136.308ZM116.361 136.325C116.361 135.622 116.22 135.01 115.936 134.489C115.653 133.968 115.268 133.571 114.78 133.299C114.304 133.016 113.777 132.874 113.199 132.874C112.621 132.874 112.094 133.01 111.618 133.282C111.142 133.554 110.763 133.951 110.479 134.472C110.196 134.993 110.054 135.605 110.054 136.308C110.054 137.022 110.196 137.645 110.479 138.178C110.763 138.699 111.142 139.102 111.618 139.385C112.094 139.657 112.621 139.793 113.199 139.793C113.777 139.793 114.304 139.657 114.78 139.385C115.268 139.102 115.653 138.699 115.936 138.178C116.22 137.645 116.361 137.028 116.361 136.325ZM123.837 141.153C123.123 141.153 122.483 141.034 121.916 140.796C121.35 140.547 120.902 140.207 120.573 139.776C120.245 139.334 120.063 138.83 120.029 138.263H121.627C121.673 138.728 121.888 139.107 122.273 139.402C122.67 139.697 123.186 139.844 123.82 139.844C124.41 139.844 124.874 139.714 125.214 139.453C125.554 139.192 125.724 138.864 125.724 138.467C125.724 138.059 125.543 137.759 125.18 137.566C124.818 137.362 124.257 137.164 123.497 136.971C122.806 136.79 122.239 136.608 121.797 136.427C121.367 136.234 120.993 135.957 120.675 135.594C120.369 135.22 120.216 134.733 120.216 134.132C120.216 133.656 120.358 133.22 120.641 132.823C120.925 132.426 121.327 132.115 121.848 131.888C122.37 131.65 122.965 131.531 123.633 131.531C124.665 131.531 125.498 131.792 126.132 132.313C126.767 132.834 127.107 133.548 127.152 134.455H125.605C125.571 133.968 125.373 133.577 125.01 133.282C124.659 132.987 124.183 132.84 123.582 132.84C123.027 132.84 122.585 132.959 122.256 133.197C121.928 133.435 121.763 133.747 121.763 134.132C121.763 134.438 121.86 134.693 122.052 134.897C122.256 135.09 122.506 135.248 122.8 135.373C123.106 135.486 123.526 135.617 124.058 135.764C124.727 135.945 125.271 136.127 125.69 136.308C126.11 136.478 126.467 136.739 126.761 137.09C127.067 137.441 127.226 137.9 127.237 138.467C127.237 138.977 127.096 139.436 126.812 139.844C126.529 140.252 126.127 140.575 125.605 140.813C125.095 141.04 124.506 141.153 123.837 141.153ZM137.643 129.151C138.935 129.151 140.051 129.395 140.992 129.882C141.944 130.358 142.669 131.044 143.168 131.939C143.678 132.834 143.933 133.888 143.933 135.101C143.933 136.314 143.678 137.368 143.168 138.263C142.669 139.147 141.944 139.827 140.992 140.303C140.051 140.768 138.935 141 137.643 141H133.954V129.151H137.643ZM137.643 139.725C139.173 139.725 140.34 139.323 141.145 138.518C141.949 137.702 142.352 136.563 142.352 135.101C142.352 133.628 141.944 132.477 141.128 131.65C140.323 130.823 139.161 130.409 137.643 130.409H135.501V139.725H137.643ZM146.772 130.171C146.477 130.171 146.228 130.069 146.024 129.865C145.82 129.661 145.718 129.412 145.718 129.117C145.718 128.822 145.82 128.573 146.024 128.369C146.228 128.165 146.477 128.063 146.772 128.063C147.055 128.063 147.293 128.165 147.486 128.369C147.69 128.573 147.792 128.822 147.792 129.117C147.792 129.412 147.69 129.661 147.486 129.865C147.293 130.069 147.055 130.171 146.772 130.171ZM147.52 131.684V141H145.973V131.684H147.52ZM166.708 129.236V141H165.161V132.228L161.251 141H160.163L156.236 132.211V141H154.689V129.236H156.355L160.707 138.96L165.059 129.236H166.708ZM168.753 136.308C168.753 135.356 168.946 134.523 169.331 133.809C169.717 133.084 170.244 132.523 170.912 132.126C171.592 131.729 172.346 131.531 173.173 131.531C173.989 131.531 174.698 131.707 175.298 132.058C175.899 132.409 176.347 132.851 176.641 133.384V131.684H178.205V141H176.641V139.266C176.335 139.81 175.876 140.263 175.264 140.626C174.664 140.977 173.961 141.153 173.156 141.153C172.329 141.153 171.581 140.949 170.912 140.541C170.244 140.133 169.717 139.561 169.331 138.824C168.946 138.087 168.753 137.249 168.753 136.308ZM176.641 136.325C176.641 135.622 176.5 135.01 176.216 134.489C175.933 133.968 175.548 133.571 175.06 133.299C174.584 133.016 174.057 132.874 173.479 132.874C172.901 132.874 172.374 133.01 171.898 133.282C171.422 133.554 171.043 133.951 170.759 134.472C170.476 134.993 170.334 135.605 170.334 136.308C170.334 137.022 170.476 137.645 170.759 138.178C171.043 138.699 171.422 139.102 171.898 139.385C172.374 139.657 172.901 139.793 173.479 139.793C174.057 139.793 174.584 139.657 175.06 139.385C175.548 139.102 175.933 138.699 176.216 138.178C176.5 137.645 176.641 137.028 176.641 136.325ZM189.082 131.684V141H187.535V139.623C187.24 140.099 186.826 140.473 186.294 140.745C185.772 141.006 185.194 141.136 184.56 141.136C183.834 141.136 183.183 140.989 182.605 140.694C182.027 140.388 181.568 139.935 181.228 139.334C180.899 138.733 180.735 138.002 180.735 137.141V131.684H182.265V136.937C182.265 137.855 182.497 138.563 182.962 139.062C183.426 139.549 184.061 139.793 184.866 139.793C185.693 139.793 186.345 139.538 186.821 139.028C187.297 138.518 187.535 137.776 187.535 136.801V131.684H189.082ZM193.241 133.197C193.513 132.664 193.898 132.251 194.397 131.956C194.907 131.661 195.524 131.514 196.25 131.514V133.112H195.842C194.108 133.112 193.241 134.053 193.241 135.934V141H191.694V131.684H193.241V133.197ZM202.099 141.153C201.226 141.153 200.433 140.955 199.719 140.558C199.016 140.161 198.461 139.6 198.053 138.875C197.656 138.138 197.458 137.288 197.458 136.325C197.458 135.373 197.662 134.534 198.07 133.809C198.489 133.072 199.056 132.511 199.77 132.126C200.484 131.729 201.283 131.531 202.167 131.531C203.051 131.531 203.85 131.729 204.564 132.126C205.278 132.511 205.839 133.067 206.247 133.792C206.666 134.517 206.876 135.362 206.876 136.325C206.876 137.288 206.66 138.138 206.23 138.875C205.81 139.6 205.238 140.161 204.513 140.558C203.787 140.955 202.983 141.153 202.099 141.153ZM202.099 139.793C202.654 139.793 203.175 139.663 203.663 139.402C204.15 139.141 204.541 138.75 204.836 138.229C205.142 137.708 205.295 137.073 205.295 136.325C205.295 135.577 205.147 134.942 204.853 134.421C204.558 133.9 204.173 133.514 203.697 133.265C203.221 133.004 202.705 132.874 202.15 132.874C201.583 132.874 201.062 133.004 200.586 133.265C200.121 133.514 199.747 133.9 199.464 134.421C199.18 134.942 199.039 135.577 199.039 136.325C199.039 137.084 199.175 137.725 199.447 138.246C199.73 138.767 200.104 139.158 200.569 139.419C201.033 139.668 201.543 139.793 202.099 139.793ZM215.38 142.802H213.833V127.485H215.38V142.802ZM229.619 129.151V130.409H224.468V134.404H228.65V135.662H224.468V141H222.921V129.151H229.619ZM232.287 130.171C231.992 130.171 231.743 130.069 231.539 129.865C231.335 129.661 231.233 129.412 231.233 129.117C231.233 128.822 231.335 128.573 231.539 128.369C231.743 128.165 231.992 128.063 232.287 128.063C232.57 128.063 232.808 128.165 233.001 128.369C233.205 128.573 233.307 128.822 233.307 129.117C233.307 129.412 233.205 129.661 233.001 129.865C232.808 130.069 232.57 130.171 232.287 130.171ZM233.035 131.684V141H231.488V131.684H233.035ZM239.513 131.531C240.318 131.531 241.021 131.707 241.621 132.058C242.233 132.409 242.687 132.851 242.981 133.384V131.684H244.545V141.204C244.545 142.054 244.364 142.808 244.001 143.465C243.639 144.134 243.117 144.655 242.437 145.029C241.769 145.403 240.987 145.59 240.091 145.59C238.867 145.59 237.847 145.301 237.031 144.723C236.215 144.145 235.734 143.357 235.586 142.36H237.116C237.286 142.927 237.638 143.38 238.17 143.72C238.703 144.071 239.343 144.247 240.091 144.247C240.941 144.247 241.633 143.981 242.165 143.448C242.709 142.915 242.981 142.167 242.981 141.204V139.249C242.675 139.793 242.222 140.246 241.621 140.609C241.021 140.972 240.318 141.153 239.513 141.153C238.686 141.153 237.932 140.949 237.252 140.541C236.584 140.133 236.057 139.561 235.671 138.824C235.286 138.087 235.093 137.249 235.093 136.308C235.093 135.356 235.286 134.523 235.671 133.809C236.057 133.084 236.584 132.523 237.252 132.126C237.932 131.729 238.686 131.531 239.513 131.531ZM242.981 136.325C242.981 135.622 242.84 135.01 242.556 134.489C242.273 133.968 241.888 133.571 241.4 133.299C240.924 133.016 240.397 132.874 239.819 132.874C239.241 132.874 238.714 133.01 238.238 133.282C237.762 133.554 237.383 133.951 237.099 134.472C236.816 134.993 236.674 135.605 236.674 136.308C236.674 137.022 236.816 137.645 237.099 138.178C237.383 138.699 237.762 139.102 238.238 139.385C238.714 139.657 239.241 139.793 239.819 139.793C240.397 139.793 240.924 139.657 241.4 139.385C241.888 139.102 242.273 138.699 242.556 138.178C242.84 137.645 242.981 137.028 242.981 136.325ZM258.363 131.514C259.088 131.514 259.734 131.667 260.301 131.973C260.867 132.268 261.315 132.715 261.644 133.316C261.972 133.917 262.137 134.648 262.137 135.509V141H260.607V135.73C260.607 134.801 260.374 134.092 259.91 133.605C259.456 133.106 258.839 132.857 258.057 132.857C257.252 132.857 256.612 133.118 256.136 133.639C255.66 134.149 255.422 134.891 255.422 135.866V141H253.892V135.73C253.892 134.801 253.659 134.092 253.195 133.605C252.741 133.106 252.124 132.857 251.342 132.857C250.537 132.857 249.897 133.118 249.421 133.639C248.945 134.149 248.707 134.891 248.707 135.866V141H247.16V131.684H248.707V133.027C249.013 132.54 249.421 132.166 249.931 131.905C250.452 131.644 251.024 131.514 251.648 131.514C252.43 131.514 253.121 131.69 253.722 132.041C254.322 132.392 254.77 132.908 255.065 133.588C255.325 132.931 255.756 132.421 256.357 132.058C256.957 131.695 257.626 131.514 258.363 131.514ZM264.096 136.308C264.096 135.356 264.289 134.523 264.674 133.809C265.06 133.084 265.587 132.523 266.255 132.126C266.935 131.729 267.689 131.531 268.516 131.531C269.332 131.531 270.041 131.707 270.641 132.058C271.242 132.409 271.69 132.851 271.984 133.384V131.684H273.548V141H271.984V139.266C271.678 139.81 271.219 140.263 270.607 140.626C270.007 140.977 269.304 141.153 268.499 141.153C267.672 141.153 266.924 140.949 266.255 140.541C265.587 140.133 265.06 139.561 264.674 138.824C264.289 138.087 264.096 137.249 264.096 136.308ZM271.984 136.325C271.984 135.622 271.843 135.01 271.559 134.489C271.276 133.968 270.891 133.571 270.403 133.299C269.927 133.016 269.4 132.874 268.822 132.874C268.244 132.874 267.717 133.01 267.241 133.282C266.765 133.554 266.386 133.951 266.102 134.472C265.819 134.993 265.677 135.605 265.677 136.308C265.677 137.022 265.819 137.645 266.102 138.178C266.386 138.699 266.765 139.102 267.241 139.385C267.717 139.657 268.244 139.793 268.822 139.793C269.4 139.793 269.927 139.657 270.403 139.385C270.891 139.102 271.276 138.699 271.559 138.178C271.843 137.645 271.984 137.028 271.984 136.325ZM277.761 138.858L275.857 143.431H274.82L276.061 138.858H277.761ZM290.304 141L287.482 136.155H285.612V141H284.065V129.151H287.89C288.785 129.151 289.539 129.304 290.151 129.61C290.774 129.916 291.239 130.33 291.545 130.851C291.851 131.372 292.004 131.967 292.004 132.636C292.004 133.452 291.766 134.172 291.29 134.795C290.825 135.418 290.123 135.832 289.182 136.036L292.157 141H290.304ZM285.612 134.914H287.89C288.729 134.914 289.358 134.71 289.777 134.302C290.196 133.883 290.406 133.327 290.406 132.636C290.406 131.933 290.196 131.389 289.777 131.004C289.369 130.619 288.74 130.426 287.89 130.426H285.612V134.914ZM302.908 135.985C302.908 136.28 302.891 136.591 302.857 136.92H295.411C295.467 137.838 295.779 138.558 296.346 139.079C296.924 139.589 297.621 139.844 298.437 139.844C299.105 139.844 299.661 139.691 300.103 139.385C300.556 139.068 300.873 138.648 301.055 138.127H302.721C302.471 139.022 301.973 139.753 301.225 140.32C300.477 140.875 299.547 141.153 298.437 141.153C297.553 141.153 296.759 140.955 296.057 140.558C295.365 140.161 294.821 139.6 294.425 138.875C294.028 138.138 293.83 137.288 293.83 136.325C293.83 135.362 294.022 134.517 294.408 133.792C294.793 133.067 295.331 132.511 296.023 132.126C296.725 131.729 297.53 131.531 298.437 131.531C299.321 131.531 300.103 131.724 300.783 132.109C301.463 132.494 301.984 133.027 302.347 133.707C302.721 134.376 302.908 135.135 302.908 135.985ZM301.31 135.662C301.31 135.073 301.179 134.568 300.919 134.149C300.658 133.718 300.301 133.395 299.848 133.18C299.406 132.953 298.913 132.84 298.369 132.84C297.587 132.84 296.918 133.089 296.363 133.588C295.819 134.087 295.507 134.778 295.428 135.662H301.31ZM304.372 136.308C304.372 135.356 304.564 134.523 304.95 133.809C305.335 133.084 305.862 132.523 306.531 132.126C307.211 131.729 307.964 131.531 308.792 131.531C309.608 131.531 310.316 131.707 310.917 132.058C311.517 132.409 311.965 132.851 312.26 133.384V131.684H313.824V141H312.26V139.266C311.954 139.81 311.495 140.263 310.883 140.626C310.282 140.977 309.579 141.153 308.775 141.153C307.947 141.153 307.199 140.949 306.531 140.541C305.862 140.133 305.335 139.561 304.95 138.824C304.564 138.087 304.372 137.249 304.372 136.308ZM312.26 136.325C312.26 135.622 312.118 135.01 311.835 134.489C311.551 133.968 311.166 133.571 310.679 133.299C310.203 133.016 309.676 132.874 309.098 132.874C308.52 132.874 307.993 133.01 307.517 133.282C307.041 133.554 306.661 133.951 306.378 134.472C306.094 134.993 305.953 135.605 305.953 136.308C305.953 137.022 306.094 137.645 306.378 138.178C306.661 138.699 307.041 139.102 307.517 139.385C307.993 139.657 308.52 139.793 309.098 139.793C309.676 139.793 310.203 139.657 310.679 139.385C311.166 139.102 311.551 138.699 311.835 138.178C312.118 137.645 312.26 137.028 312.26 136.325ZM315.86 136.325C315.86 135.362 316.053 134.523 316.438 133.809C316.823 133.084 317.356 132.523 318.036 132.126C318.727 131.729 319.515 131.531 320.399 131.531C321.544 131.531 322.484 131.809 323.221 132.364C323.969 132.919 324.462 133.69 324.7 134.676H323.034C322.875 134.109 322.564 133.662 322.099 133.333C321.646 133.004 321.079 132.84 320.399 132.84C319.515 132.84 318.801 133.146 318.257 133.758C317.713 134.359 317.441 135.214 317.441 136.325C317.441 137.447 317.713 138.314 318.257 138.926C318.801 139.538 319.515 139.844 320.399 139.844C321.079 139.844 321.646 139.685 322.099 139.368C322.552 139.051 322.864 138.597 323.034 138.008H324.7C324.451 138.96 323.952 139.725 323.204 140.303C322.456 140.87 321.521 141.153 320.399 141.153C319.515 141.153 318.727 140.955 318.036 140.558C317.356 140.161 316.823 139.6 316.438 138.875C316.053 138.15 315.86 137.3 315.86 136.325ZM328.651 132.959V138.45C328.651 138.903 328.747 139.226 328.94 139.419C329.133 139.6 329.467 139.691 329.943 139.691H331.082V141H329.688C328.827 141 328.181 140.802 327.75 140.405C327.319 140.008 327.104 139.357 327.104 138.45V132.959H325.897V131.684H327.104V129.338H328.651V131.684H331.082V132.959H328.651ZM333.449 141.102C333.155 141.102 332.905 141 332.701 140.796C332.497 140.592 332.395 140.343 332.395 140.048C332.395 139.753 332.497 139.504 332.701 139.3C332.905 139.096 333.155 138.994 333.449 138.994C333.733 138.994 333.971 139.096 334.163 139.3C334.367 139.504 334.469 139.753 334.469 140.048C334.469 140.343 334.367 140.592 334.163 140.796C333.971 141 333.733 141.102 333.449 141.102ZM337.359 130.171C337.064 130.171 336.815 130.069 336.611 129.865C336.418 129.661 336.322 129.412 336.322 129.117C336.322 128.822 336.418 128.573 336.611 128.369C336.815 128.165 337.064 128.063 337.359 128.063C337.653 128.063 337.897 128.165 338.09 128.369C338.294 128.573 338.396 128.822 338.396 129.117C338.396 129.412 338.294 129.661 338.09 129.865C337.897 130.069 337.653 130.171 337.359 130.171ZM338.124 143.023C338.124 143.85 337.914 144.457 337.495 144.842C337.075 145.227 336.463 145.42 335.659 145.42H334.758V144.111H335.404C335.834 144.111 336.135 144.026 336.305 143.856C336.486 143.686 336.577 143.397 336.577 142.989V131.684H338.124V143.023ZM344.041 141.153C343.327 141.153 342.686 141.034 342.12 140.796C341.553 140.547 341.105 140.207 340.777 139.776C340.448 139.334 340.267 138.83 340.233 138.263H341.831C341.876 138.728 342.091 139.107 342.477 139.402C342.873 139.697 343.389 139.844 344.024 139.844C344.613 139.844 345.078 139.714 345.418 139.453C345.758 139.192 345.928 138.864 345.928 138.467C345.928 138.059 345.746 137.759 345.384 137.566C345.021 137.362 344.46 137.164 343.701 136.971C343.009 136.79 342.443 136.608 342.001 136.427C341.57 136.234 341.196 135.957 340.879 135.594C340.573 135.22 340.42 134.733 340.42 134.132C340.42 133.656 340.561 133.22 340.845 132.823C341.128 132.426 341.53 132.115 342.052 131.888C342.573 131.65 343.168 131.531 343.837 131.531C344.868 131.531 345.701 131.792 346.336 132.313C346.97 132.834 347.31 133.548 347.356 134.455H345.809C345.775 133.968 345.576 133.577 345.214 133.282C344.862 132.987 344.386 132.84 343.786 132.84C343.23 132.84 342.788 132.959 342.46 133.197C342.131 133.435 341.967 133.747 341.967 134.132C341.967 134.438 342.063 134.693 342.256 134.897C342.46 135.09 342.709 135.248 343.004 135.373C343.31 135.486 343.729 135.617 344.262 135.764C344.93 135.945 345.474 136.127 345.894 136.308C346.313 136.478 346.67 136.739 346.965 137.09C347.271 137.441 347.429 137.9 347.441 138.467C347.441 138.977 347.299 139.436 347.016 139.844C346.732 140.252 346.33 140.575 345.809 140.813C345.299 141.04 344.709 141.153 344.041 141.153ZM363.473 141H361.926L355.704 131.565V141H354.157V129.134H355.704L361.926 138.552V129.134H363.473V141ZM374.61 135.985C374.61 136.28 374.593 136.591 374.559 136.92H367.113C367.169 137.838 367.481 138.558 368.048 139.079C368.626 139.589 369.323 139.844 370.139 139.844C370.807 139.844 371.363 139.691 371.805 139.385C372.258 139.068 372.575 138.648 372.757 138.127H374.423C374.173 139.022 373.675 139.753 372.927 140.32C372.179 140.875 371.249 141.153 370.139 141.153C369.255 141.153 368.461 140.955 367.759 140.558C367.067 140.161 366.523 139.6 366.127 138.875C365.73 138.138 365.532 137.288 365.532 136.325C365.532 135.362 365.724 134.517 366.11 133.792C366.495 133.067 367.033 132.511 367.725 132.126C368.427 131.729 369.232 131.531 370.139 131.531C371.023 131.531 371.805 131.724 372.485 132.109C373.165 132.494 373.686 133.027 374.049 133.707C374.423 134.376 374.61 135.135 374.61 135.985ZM373.012 135.662C373.012 135.073 372.881 134.568 372.621 134.149C372.36 133.718 372.003 133.395 371.55 133.18C371.108 132.953 370.615 132.84 370.071 132.84C369.289 132.84 368.62 133.089 368.065 133.588C367.521 134.087 367.209 134.778 367.13 135.662H373.012ZM381.514 141L379.304 137.532L377.179 141H375.564L378.573 136.376L375.564 131.684H377.315L379.525 135.135L381.633 131.684H383.248L380.256 136.291L383.265 141H381.514ZM386.674 132.959V138.45C386.674 138.903 386.77 139.226 386.963 139.419C387.155 139.6 387.49 139.691 387.966 139.691H389.105V141H387.711C386.849 141 386.203 140.802 385.773 140.405C385.342 140.008 385.127 139.357 385.127 138.45V132.959H383.92V131.684H385.127V129.338H386.674V131.684H389.105V132.959H386.674ZM391.472 141.102C391.177 141.102 390.928 141 390.724 140.796C390.52 140.592 390.418 140.343 390.418 140.048C390.418 139.753 390.52 139.504 390.724 139.3C390.928 139.096 391.177 138.994 391.472 138.994C391.755 138.994 391.993 139.096 392.186 139.3C392.39 139.504 392.492 139.753 392.492 140.048C392.492 140.343 392.39 140.592 392.186 140.796C391.993 141 391.755 141.102 391.472 141.102ZM395.381 130.171C395.087 130.171 394.837 130.069 394.633 129.865C394.441 129.661 394.344 129.412 394.344 129.117C394.344 128.822 394.441 128.573 394.633 128.369C394.837 128.165 395.087 128.063 395.381 128.063C395.676 128.063 395.92 128.165 396.112 128.369C396.316 128.573 396.418 128.822 396.418 129.117C396.418 129.412 396.316 129.661 396.112 129.865C395.92 130.069 395.676 130.171 395.381 130.171ZM396.146 143.023C396.146 143.85 395.937 144.457 395.517 144.842C395.098 145.227 394.486 145.42 393.681 145.42H392.78V144.111H393.426C393.857 144.111 394.157 144.026 394.327 143.856C394.509 143.686 394.599 143.397 394.599 142.989V131.684H396.146V143.023ZM402.063 141.153C401.349 141.153 400.709 141.034 400.142 140.796C399.575 140.547 399.128 140.207 398.799 139.776C398.47 139.334 398.289 138.83 398.255 138.263H399.853C399.898 138.728 400.114 139.107 400.499 139.402C400.896 139.697 401.411 139.844 402.046 139.844C402.635 139.844 403.1 139.714 403.44 139.453C403.78 139.192 403.95 138.864 403.95 138.467C403.95 138.059 403.769 137.759 403.406 137.566C403.043 137.362 402.482 137.164 401.723 136.971C401.032 136.79 400.465 136.608 400.023 136.427C399.592 136.234 399.218 135.957 398.901 135.594C398.595 135.22 398.442 134.733 398.442 134.132C398.442 133.656 398.584 133.22 398.867 132.823C399.15 132.426 399.553 132.115 400.074 131.888C400.595 131.65 401.19 131.531 401.859 131.531C402.89 131.531 403.723 131.792 404.358 132.313C404.993 132.834 405.333 133.548 405.378 134.455H403.831C403.797 133.968 403.599 133.577 403.236 133.282C402.885 132.987 402.409 132.84 401.808 132.84C401.253 132.84 400.811 132.959 400.482 133.197C400.153 133.435 399.989 133.747 399.989 134.132C399.989 134.438 400.085 134.693 400.278 134.897C400.482 135.09 400.731 135.248 401.026 135.373C401.332 135.486 401.751 135.617 402.284 135.764C402.953 135.945 403.497 136.127 403.916 136.308C404.335 136.478 404.692 136.739 404.987 137.09C405.293 137.441 405.452 137.9 405.463 138.467C405.463 138.977 405.321 139.436 405.038 139.844C404.755 140.252 404.352 140.575 403.831 140.813C403.321 141.04 402.732 141.153 402.063 141.153ZM421.274 141L419.727 139.436C419.149 140.037 418.531 140.484 417.874 140.779C417.217 141.062 416.474 141.204 415.647 141.204C414.831 141.204 414.106 141.057 413.471 140.762C412.848 140.467 412.36 140.048 412.009 139.504C411.669 138.96 411.499 138.325 411.499 137.6C411.499 136.773 411.731 136.047 412.196 135.424C412.672 134.789 413.369 134.291 414.287 133.928C413.924 133.497 413.664 133.101 413.505 132.738C413.346 132.375 413.267 131.979 413.267 131.548C413.267 131.049 413.392 130.602 413.641 130.205C413.902 129.797 414.27 129.48 414.746 129.253C415.222 129.026 415.772 128.913 416.395 128.913C417.007 128.913 417.54 129.032 417.993 129.27C418.446 129.508 418.786 129.842 419.013 130.273C419.24 130.692 419.342 131.163 419.319 131.684H417.772C417.783 131.219 417.653 130.857 417.381 130.596C417.109 130.324 416.758 130.188 416.327 130.188C415.874 130.188 415.505 130.318 415.222 130.579C414.95 130.828 414.814 131.151 414.814 131.548C414.814 131.888 414.905 132.217 415.086 132.534C415.279 132.851 415.596 133.242 416.038 133.707L419.574 137.26L419.88 136.784L421.036 134.846H422.702L421.308 137.26C421.115 137.6 420.889 137.957 420.628 138.331L423.297 141H421.274ZM415.647 139.878C416.259 139.878 416.809 139.759 417.296 139.521C417.795 139.283 418.265 138.915 418.707 138.416L415.222 134.914C413.771 135.469 413.046 136.348 413.046 137.549C413.046 138.218 413.284 138.773 413.76 139.215C414.247 139.657 414.876 139.878 415.647 139.878ZM433.036 141.119C432.254 141.119 431.551 140.983 430.928 140.711C430.316 140.428 429.834 140.042 429.483 139.555C429.131 139.056 428.95 138.484 428.939 137.838H430.588C430.644 138.393 430.871 138.864 431.268 139.249C431.676 139.623 432.265 139.81 433.036 139.81C433.772 139.81 434.35 139.629 434.77 139.266C435.2 138.892 435.416 138.416 435.416 137.838C435.416 137.385 435.291 137.016 435.042 136.733C434.792 136.45 434.481 136.234 434.107 136.087C433.733 135.94 433.228 135.781 432.594 135.611C431.812 135.407 431.183 135.203 430.707 134.999C430.242 134.795 429.84 134.478 429.5 134.047C429.171 133.605 429.007 133.016 429.007 132.279C429.007 131.633 429.171 131.061 429.5 130.562C429.828 130.063 430.287 129.678 430.877 129.406C431.477 129.134 432.163 128.998 432.934 128.998C434.044 128.998 434.951 129.276 435.654 129.831C436.368 130.386 436.77 131.123 436.861 132.041H435.161C435.104 131.588 434.866 131.191 434.447 130.851C434.027 130.5 433.472 130.324 432.781 130.324C432.135 130.324 431.608 130.494 431.2 130.834C430.792 131.163 430.588 131.627 430.588 132.228C430.588 132.659 430.707 133.01 430.945 133.282C431.194 133.554 431.494 133.764 431.846 133.911C432.208 134.047 432.713 134.206 433.359 134.387C434.141 134.602 434.77 134.818 435.246 135.033C435.722 135.237 436.13 135.56 436.47 136.002C436.81 136.433 436.98 137.022 436.98 137.77C436.98 138.348 436.827 138.892 436.521 139.402C436.215 139.912 435.761 140.326 435.161 140.643C434.56 140.96 433.852 141.119 433.036 141.119ZM438.678 136.308C438.678 135.356 438.871 134.523 439.256 133.809C439.642 133.084 440.169 132.523 440.837 132.126C441.517 131.729 442.271 131.531 443.098 131.531C443.914 131.531 444.623 131.707 445.223 132.058C445.824 132.409 446.272 132.851 446.566 133.384V131.684H448.13V141H446.566V139.266C446.26 139.81 445.801 140.263 445.189 140.626C444.589 140.977 443.886 141.153 443.081 141.153C442.254 141.153 441.506 140.949 440.837 140.541C440.169 140.133 439.642 139.561 439.256 138.824C438.871 138.087 438.678 137.249 438.678 136.308ZM446.566 136.325C446.566 135.622 446.425 135.01 446.141 134.489C445.858 133.968 445.473 133.571 444.985 133.299C444.509 133.016 443.982 132.874 443.404 132.874C442.826 132.874 442.299 133.01 441.823 133.282C441.347 133.554 440.968 133.951 440.684 134.472C440.401 134.993 440.259 135.605 440.259 136.308C440.259 137.022 440.401 137.645 440.684 138.178C440.968 138.699 441.347 139.102 441.823 139.385C442.299 139.657 442.826 139.793 443.404 139.793C443.982 139.793 444.509 139.657 444.985 139.385C445.473 139.102 445.858 138.699 446.141 138.178C446.425 137.645 446.566 137.028 446.566 136.325ZM454.043 141.153C453.329 141.153 452.688 141.034 452.122 140.796C451.555 140.547 451.107 140.207 450.779 139.776C450.45 139.334 450.269 138.83 450.235 138.263H451.833C451.878 138.728 452.093 139.107 452.479 139.402C452.875 139.697 453.391 139.844 454.026 139.844C454.615 139.844 455.08 139.714 455.42 139.453C455.76 139.192 455.93 138.864 455.93 138.467C455.93 138.059 455.748 137.759 455.386 137.566C455.023 137.362 454.462 137.164 453.703 136.971C453.011 136.79 452.445 136.608 452.003 136.427C451.572 136.234 451.198 135.957 450.881 135.594C450.575 135.22 450.422 134.733 450.422 134.132C450.422 133.656 450.563 133.22 450.847 132.823C451.13 132.426 451.532 132.115 452.054 131.888C452.575 131.65 453.17 131.531 453.839 131.531C454.87 131.531 455.703 131.792 456.338 132.313C456.972 132.834 457.312 133.548 457.358 134.455H455.811C455.777 133.968 455.578 133.577 455.216 133.282C454.864 132.987 454.388 132.84 453.788 132.84C453.232 132.84 452.79 132.959 452.462 133.197C452.133 133.435 451.969 133.747 451.969 134.132C451.969 134.438 452.065 134.693 452.258 134.897C452.462 135.09 452.711 135.248 453.006 135.373C453.312 135.486 453.731 135.617 454.264 135.764C454.932 135.945 455.476 136.127 455.896 136.308C456.315 136.478 456.672 136.739 456.967 137.09C457.273 137.441 457.431 137.9 457.443 138.467C457.443 138.977 457.301 139.436 457.018 139.844C456.734 140.252 456.332 140.575 455.811 140.813C455.301 141.04 454.711 141.153 454.043 141.153ZM462.924 141.153C462.21 141.153 461.57 141.034 461.003 140.796C460.437 140.547 459.989 140.207 459.66 139.776C459.332 139.334 459.15 138.83 459.116 138.263H460.714C460.76 138.728 460.975 139.107 461.36 139.402C461.757 139.697 462.273 139.844 462.907 139.844C463.497 139.844 463.961 139.714 464.301 139.453C464.641 139.192 464.811 138.864 464.811 138.467C464.811 138.059 464.63 137.759 464.267 137.566C463.905 137.362 463.344 137.164 462.584 136.971C461.893 136.79 461.326 136.608 460.884 136.427C460.454 136.234 460.08 135.957 459.762 135.594C459.456 135.22 459.303 134.733 459.303 134.132C459.303 133.656 459.445 133.22 459.728 132.823C460.012 132.426 460.414 132.115 460.935 131.888C461.457 131.65 462.052 131.531 462.72 131.531C463.752 131.531 464.585 131.792 465.219 132.313C465.854 132.834 466.194 133.548 466.239 134.455H464.692C464.658 133.968 464.46 133.577 464.097 133.282C463.746 132.987 463.27 132.84 462.669 132.84C462.114 132.84 461.672 132.959 461.343 133.197C461.015 133.435 460.85 133.747 460.85 134.132C460.85 134.438 460.947 134.693 461.139 134.897C461.343 135.09 461.593 135.248 461.887 135.373C462.193 135.486 462.613 135.617 463.145 135.764C463.814 135.945 464.358 136.127 464.777 136.308C465.197 136.478 465.554 136.739 465.848 137.09C466.154 137.441 466.313 137.9 466.324 138.467C466.324 138.977 466.183 139.436 465.899 139.844C465.616 140.252 465.214 140.575 464.692 140.813C464.182 141.04 463.593 141.153 462.924 141.153Z" fill="#12130F"/>
</g>
<defs>
<clipPath id="clip0_75_2">
<rect width="1192" height="200" rx="10" fill="white"/>
</clipPath>
</defs>
</svg>
